<?xml version="1.0" encoding="UTF-8"?>
<!DOCTYPE svg PUBLIC "-//W3C//DTD SVG 1.1//EN" "http://www.w3.org/Graphics/SVG/1.1/DTD/svg11.dtd">
<svg xmlns="http://www.w3.org/2000/svg" version="1.1" width="981px" height="982px" style="shape-rendering:geometricPrecision; text-rendering:geometricPrecision; image-rendering:optimizeQuality; fill-rule:evenodd; clip-rule:evenodd" xmlns:xlink="http://www.w3.org/1999/xlink">
<g><path style="opacity:1" fill="#cff0f8" d="M 444.5,-0.5 C 449.5,-0.5 454.5,-0.5 459.5,-0.5C 561.152,6.77032 653.152,40.2703 735.5,100C 834.306,172.407 903.806,266.573 944,382.5C 958.344,427.389 966.178,473.389 967.5,520.5C 943.5,520.5 919.5,520.5 895.5,520.5C 884.796,384.926 828.796,272.426 727.5,183C 645.836,114.589 551.503,76.7561 444.5,69.5C 444.5,46.1667 444.5,22.8333 444.5,-0.5 Z"/></g>
<g><path style="opacity:1" fill="#cff0f8" d="M 980.5,796.5 C 980.5,800.167 980.5,803.833 980.5,807.5C 928.757,860.744 876.424,913.577 823.5,966C 812.496,973.673 800.496,978.84 787.5,981.5C 777.5,981.5 767.5,981.5 757.5,981.5C 693.619,975.046 632.619,957.879 574.5,930C 505.255,896.24 440.922,855.24 381.5,807C 290.957,733.13 210.79,649.63 141,556.5C 101.311,502.825 67.9774,445.158 41,383.5C 17.231,328.762 3.39769,271.762 -0.5,212.5C -0.5,209.833 -0.5,207.167 -0.5,204.5C -0.0672764,187.703 5.09939,172.37 15,158.5C 66.5,107 118,55.5 169.5,4C 177.996,-1.16706 185.496,-0.000389524 192,7.5C 232.333,83.5 272.667,159.5 313,235.5C 316.449,247.029 315.116,258.029 309,268.5C 290,287.5 271,306.5 252,325.5C 235.937,343.816 231.937,364.483 240,387.5C 250.367,418.567 264.7,447.567 283,474.5C 339.22,553.723 406.053,622.89 483.5,682C 513.326,704.433 545.659,722.766 580.5,737C 592.131,741.408 604.131,744.241 616.5,745.5C 630.766,744.137 643.432,738.97 654.5,730C 676.833,707.667 699.167,685.333 721.5,663C 731.618,656.902 742.285,655.569 753.5,659C 826.167,701.667 898.833,744.333 971.5,787C 975.408,789.406 978.408,792.572 980.5,796.5 Z"/></g>
<g><path style="opacity:1" fill="#cff0f8" d="M 444.5,161.5 C 575.221,173.247 676.054,233.913 747,343.5C 780.073,397.552 799.239,456.219 804.5,519.5C 780.509,520.5 756.509,520.833 732.5,520.5C 720.167,417.113 670.833,336.947 584.5,280C 541.517,253.617 494.85,238.117 444.5,233.5C 444.5,209.5 444.5,185.5 444.5,161.5 Z"/></g>
<g><path style="opacity:1" fill="#cff0f8" d="M 444.5,325.5 C 528.271,337.625 588.104,381.959 624,458.5C 632.313,478.419 637.813,499.086 640.5,520.5C 620.156,520.833 599.822,520.5 579.5,519.5C 562.492,458.66 524.825,416.16 466.5,392C 459.297,389.32 451.963,387.154 444.5,385.5C 444.5,365.5 444.5,345.5 444.5,325.5 Z"/></g>
</svg>
