<?xml version="1.0" encoding="UTF-8"?>
<!DOCTYPE svg PUBLIC "-//W3C//DTD SVG 1.1//EN" "http://www.w3.org/Graphics/SVG/1.1/DTD/svg11.dtd">
<svg xmlns="http://www.w3.org/2000/svg" version="1.1" width="3000px" height="3000px" style="shape-rendering:geometricPrecision; text-rendering:geometricPrecision; image-rendering:optimizeQuality; fill-rule:evenodd; clip-rule:evenodd" xmlns:xlink="http://www.w3.org/1999/xlink">
<g><path style="opacity:0.999" fill="#cff0f8" d="M 1287.5,480.5 C 1422.83,480.333 1558.17,480.5 1693.5,481C 1703.45,482.198 1713.45,482.865 1723.5,483C 1937.53,488.053 2151.53,494.053 2365.5,501C 2437.85,502.924 2509.85,508.924 2581.5,519C 2725.8,539.996 2823.63,618.496 2875,754.5C 2895.39,804.39 2909.06,856.056 2916,909.5C 2928.48,1020.89 2937.48,1132.56 2943,1244.5C 2948.02,1403.48 2948.69,1562.48 2945,1721.5C 2942.07,1817.06 2935.74,1912.39 2926,2007.5C 2919.67,2097.85 2899.33,2184.85 2865,2268.5C 2845.39,2315.56 2816.55,2356.06 2778.5,2390C 2720.79,2440.94 2653.45,2471.27 2576.5,2481C 2460.43,2492.51 2344.1,2499.85 2227.5,2503C 2049.5,2507.9 1871.5,2512.9 1693.5,2518C 1588.83,2518.67 1484.17,2518.67 1379.5,2518C 1111.47,2511.67 843.473,2503.33 575.5,2493C 505.017,2492.02 435.683,2482.69 367.5,2465C 245.608,2432.77 163.775,2357.27 122,2238.5C 104.782,2194.84 92.4484,2149.84 85,2103.5C 74.2193,2008.36 65.5526,1913.03 59,1817.5C 52.3678,1664.57 50.0345,1511.57 52,1358.5C 53.6129,1223.08 61.9462,1088.08 77,953.5C 83.6189,881.693 100.286,812.36 127,745.5C 184.49,607.951 287.657,531.451 436.5,516C 506.651,508.27 576.984,502.937 647.5,500C 860.979,492.964 1074.31,486.464 1287.5,480.5 Z M 1202.5,1064.5 C 1461.76,1199.13 1720.76,1334.3 1979.5,1470C 1720.99,1604.42 1462.32,1738.59 1203.5,1872.5C 1202.5,1603.17 1202.17,1333.83 1202.5,1064.5 Z"/></g>
</svg>
