<?xml version="1.0" encoding="UTF-8"?>
<!DOCTYPE svg PUBLIC "-//W3C//DTD SVG 1.1//EN" "http://www.w3.org/Graphics/SVG/1.1/DTD/svg11.dtd">
<svg xmlns="http://www.w3.org/2000/svg" version="1.1" width="652px" height="980px" style="shape-rendering:geometricPrecision; text-rendering:geometricPrecision; image-rendering:optimizeQuality; fill-rule:evenodd; clip-rule:evenodd" xmlns:xlink="http://www.w3.org/1999/xlink">
<g><path style="opacity:1" fill="#cff0f8" d="M 300.5,-0.5 C 317.167,-0.5 333.833,-0.5 350.5,-0.5C 454.175,10.4367 534.675,59.1034 592,145.5C 635.604,218.995 645.938,296.995 623,379.5C 603.206,444.562 575.873,506.229 541,564.5C 479.556,666.691 408.39,761.691 327.5,849.5C 243.14,759.997 169.307,662.664 106,557.5C 79.9713,513.108 57.9713,466.775 40,418.5C 27.6113,385.555 19.9446,351.555 17,316.5C 13.4969,207.682 55.3303,121.182 142.5,57C 190.13,24.0671 242.797,4.90042 300.5,-0.5 Z M 313.5,168.5 C 382.307,166.475 434.14,194.808 469,253.5C 494.535,305.997 493.535,357.997 466,409.5C 428.128,468.433 374.128,494.433 304,487.5C 246.125,477.249 204.792,445.582 180,392.5C 156.144,330.477 165.144,273.81 207,222.5C 235.829,191.335 271.329,173.335 313.5,168.5 Z"/></g>
<g><path style="opacity:1" fill="#cff0f8" d="M 651.5,841.5 C 651.5,846.833 651.5,852.167 651.5,857.5C 649.44,866.639 645.94,875.305 641,883.5C 627.196,901.308 610.362,915.474 590.5,926C 549.969,946.399 507.303,960.399 462.5,968C 429.91,973.787 397.243,977.62 364.5,979.5C 338.5,979.5 312.5,979.5 286.5,979.5C 220.692,976.807 156.692,964.307 94.5,942C 71.2874,933.068 49.954,921.068 30.5,906C 14.9558,893.372 4.62249,877.539 -0.5,858.5C -0.5,852.5 -0.5,846.5 -0.5,840.5C 4.35724,822.974 13.6906,808.141 27.5,796C 47.9475,779.433 70.6142,766.433 95.5,757C 116.233,749.089 137.399,742.589 159,737.5C 159.772,737.645 160.439,737.978 161,738.5C 164.012,751.547 167.179,764.547 170.5,777.5C 155.198,781.659 139.865,785.826 124.5,790C 103,796.27 82.9995,805.604 64.5,818C 53.1435,825.551 46.4769,836.051 44.5,849.5C 45.1276,857.418 47.961,864.418 53,870.5C 64.007,881.925 76.8403,890.759 91.5,897C 132.638,913.618 175.305,924.284 219.5,929C 311.78,940.189 403.447,936.522 494.5,918C 522.586,912.084 549.253,902.417 574.5,889C 584.222,883.277 592.722,876.111 600,867.5C 606.893,856.338 607.227,845.005 601,833.5C 590.175,819.831 576.675,809.665 560.5,803C 534.172,791.502 506.838,783.335 478.5,778.5C 481.961,764.783 485.628,751.116 489.5,737.5C 530.009,745.595 568.009,760.095 603.5,781C 622.487,792.32 636.987,807.82 647,827.5C 648.83,832.184 650.33,836.851 651.5,841.5 Z"/></g>
</svg>
