<?xml version="1.0" encoding="UTF-8"?>
<!DOCTYPE svg PUBLIC "-//W3C//DTD SVG 1.1//EN" "http://www.w3.org/Graphics/SVG/1.1/DTD/svg11.dtd">
<svg xmlns="http://www.w3.org/2000/svg" version="1.1" width="2977px" height="2977px" style="shape-rendering:geometricPrecision; text-rendering:geometricPrecision; image-rendering:optimizeQuality; fill-rule:evenodd; clip-rule:evenodd" xmlns:xlink="http://www.w3.org/1999/xlink">
<g><path style="opacity:0.996" fill="#cff0f8" d="M 979.5,270.5 C 1318.17,270.333 1656.83,270.5 1995.5,271C 2190.65,279.359 2357.15,351.859 2495,488.5C 2620.74,618.371 2690.41,774.038 2704,955.5C 2705.65,1304.16 2705.99,1652.82 2705,2001.5C 2694.13,2206.38 2613.96,2378.21 2464.5,2517C 2339.09,2628.63 2192.09,2690.97 2023.5,2704C 1672.51,2705.66 1321.51,2705.99 970.5,2705C 767.241,2692.94 596.741,2612.77 459,2464.5C 342.074,2332.88 279.407,2178.55 271,2001.5C 270.333,1659.17 270.333,1316.83 271,974.5C 282.204,766.622 364.371,593.122 517.5,454C 649.705,339.293 803.705,278.126 979.5,270.5 Z M 984.5,500.5 C 1320.17,500.333 1655.83,500.5 1991.5,501C 2138.19,508.937 2259.69,567.77 2356,677.5C 2425.32,760.048 2464.65,855.382 2474,963.5C 2475.16,1138.32 2475.66,1313.16 2475.5,1488C 2475.66,1662.84 2475.16,1837.68 2474,2012.5C 2461.07,2148.2 2404.23,2261.37 2303.5,2352C 2220.49,2423.15 2124.15,2463.81 2014.5,2474C 1839.01,2475.16 1663.51,2475.66 1488,2475.5C 1312.49,2475.66 1136.99,2475.16 961.5,2474C 803.247,2457.33 678.414,2384.49 587,2255.5C 534.592,2177.27 505.925,2090.94 501,1996.5C 500.333,1657.83 500.333,1319.17 501,980.5C 510.447,832.44 571.28,710.606 683.5,615C 771.176,544.264 871.509,506.098 984.5,500.5 Z M 1483.5,1104.5 C 1616.15,1103.75 1723.32,1155.08 1805,1258.5C 1877.56,1359.96 1898.22,1471.29 1867,1592.5C 1833.26,1702.83 1764.76,1783.66 1661.5,1835C 1564.6,1878.81 1465.93,1883.15 1365.5,1848C 1269.25,1810.75 1198.08,1745.92 1152,1653.5C 1103.49,1546.76 1102.16,1439.42 1148,1331.5C 1201.59,1218.92 1288.76,1146.75 1409.5,1115C 1434.04,1109.57 1458.71,1106.07 1483.5,1104.5 Z"/></g>
<g><path style="opacity:0.994" fill="#cff0f8" d="M 2117.5,705.5 C 2177.57,701.951 2223.74,725.285 2256,775.5C 2282,824.167 2282,872.833 2256,921.5C 2223.76,971.04 2177.92,994.207 2118.5,991C 2069.44,984.913 2032.28,960.747 2007,918.5C 1983.67,871.833 1983.67,825.167 2007,778.5C 2032.3,736.701 2069.13,712.367 2117.5,705.5 Z"/></g>
<g><path style="opacity:0.996" fill="#cff0f8" d="M 1467.5,888.5 C 1656.11,883.161 1814.61,948.827 1943,1085.5C 2066.48,1227.32 2115.81,1391.99 2091,1579.5C 2062.78,1744.88 1981.62,1877.04 1847.5,1976C 1708.36,2072.5 1555.03,2106.5 1387.5,2078C 1230.36,2046.07 1104.53,1965.9 1010,1837.5C 917.353,1704.56 882.353,1557.56 905,1396.5C 933.125,1231.64 1013.96,1099.81 1147.5,1001C 1243.34,933.217 1350.01,895.717 1467.5,888.5 Z M 1483.5,1104.5 C 1458.71,1106.07 1434.04,1109.57 1409.5,1115C 1288.76,1146.75 1201.59,1218.92 1148,1331.5C 1102.16,1439.42 1103.49,1546.76 1152,1653.5C 1198.08,1745.92 1269.25,1810.75 1365.5,1848C 1465.93,1883.15 1564.6,1878.81 1661.5,1835C 1764.76,1783.66 1833.26,1702.83 1867,1592.5C 1898.22,1471.29 1877.56,1359.96 1805,1258.5C 1723.32,1155.08 1616.15,1103.75 1483.5,1104.5 Z"/></g>
</svg>
